<mxfile host="app.diagrams.net" agent="Mozilla/5.0 (Windows NT 10.0; Win64; x64) AppleWebKit/537.36 (KHTML, like Gecko) Chrome/127.0.0.0 Safari/537.36" version="24.7.7">
  <diagram name="Page-1" id="XEwzCVqfgv6WoFN6cU4P">
    <mxGraphModel dx="1804" dy="558" grid="1" gridSize="10" guides="1" tooltips="1" connect="1" arrows="1" fold="1" page="1" pageScale="1" pageWidth="850" pageHeight="1100" math="0" shadow="0">
      <root>
        <mxCell id="0" />
        <mxCell id="1" parent="0" />
        <mxCell id="l-zGgqVaCMHIHdRE0eHl-30" value="" style="edgeStyle=orthogonalEdgeStyle;rounded=0;orthogonalLoop=1;jettySize=auto;html=1;entryX=0;entryY=0.5;entryDx=0;entryDy=0;entryPerimeter=0;" parent="1" source="l-zGgqVaCMHIHdRE0eHl-1" target="l-zGgqVaCMHIHdRE0eHl-2" edge="1">
          <mxGeometry relative="1" as="geometry">
            <mxPoint x="45" y="130.5" as="targetPoint" />
            <Array as="points">
              <mxPoint x="45" y="170" />
            </Array>
          </mxGeometry>
        </mxCell>
        <mxCell id="l-zGgqVaCMHIHdRE0eHl-1" value="Actor" style="shape=umlActor;verticalLabelPosition=bottom;verticalAlign=top;html=1;outlineConnect=0;" parent="1" vertex="1">
          <mxGeometry x="30" y="210" width="30" height="59" as="geometry" />
        </mxCell>
        <mxCell id="l-zGgqVaCMHIHdRE0eHl-2" value="" style="sketch=0;points=[[0,0,0],[0.25,0,0],[0.5,0,0],[0.75,0,0],[1,0,0],[0,1,0],[0.25,1,0],[0.5,1,0],[0.75,1,0],[1,1,0],[0,0.25,0],[0,0.5,0],[0,0.75,0],[1,0.25,0],[1,0.5,0],[1,0.75,0]];outlineConnect=0;fontColor=#232F3E;fillColor=#8C4FFF;strokeColor=#ffffff;dashed=0;verticalLabelPosition=bottom;verticalAlign=top;align=center;html=1;fontSize=12;fontStyle=0;aspect=fixed;shape=mxgraph.aws4.resourceIcon;resIcon=mxgraph.aws4.kinesis;" parent="1" vertex="1">
          <mxGeometry x="174" y="131" width="78" height="78" as="geometry" />
        </mxCell>
        <mxCell id="l-zGgqVaCMHIHdRE0eHl-3" value="" style="outlineConnect=0;dashed=0;verticalLabelPosition=bottom;verticalAlign=top;align=center;html=1;shape=mxgraph.aws3.lambda_function;fillColor=#F58534;gradientColor=none;" parent="1" vertex="1">
          <mxGeometry x="340" y="240" width="80" height="82" as="geometry" />
        </mxCell>
        <mxCell id="l-zGgqVaCMHIHdRE0eHl-4" value="" style="sketch=0;points=[[0,0,0],[0.25,0,0],[0.5,0,0],[0.75,0,0],[1,0,0],[0,1,0],[0.25,1,0],[0.5,1,0],[0.75,1,0],[1,1,0],[0,0.25,0],[0,0.5,0],[0,0.75,0],[1,0.25,0],[1,0.5,0],[1,0.75,0]];outlineConnect=0;fontColor=#232F3E;fillColor=#7AA116;strokeColor=#ffffff;dashed=0;verticalLabelPosition=bottom;verticalAlign=top;align=center;html=1;fontSize=12;fontStyle=0;aspect=fixed;shape=mxgraph.aws4.resourceIcon;resIcon=mxgraph.aws4.s3;" parent="1" vertex="1">
          <mxGeometry x="635.37" y="118" width="104" height="104" as="geometry" />
        </mxCell>
        <mxCell id="l-zGgqVaCMHIHdRE0eHl-5" value="" style="image;sketch=0;aspect=fixed;html=1;points=[];align=center;fontSize=12;image=img/lib/mscae/Docker.svg;" parent="1" vertex="1">
          <mxGeometry x="590" y="340" width="85.37" height="70" as="geometry" />
        </mxCell>
        <mxCell id="l-zGgqVaCMHIHdRE0eHl-7" value="" style="sketch=0;points=[[0,0,0],[0.25,0,0],[0.5,0,0],[0.75,0,0],[1,0,0],[0,1,0],[0.25,1,0],[0.5,1,0],[0.75,1,0],[1,1,0],[0,0.25,0],[0,0.5,0],[0,0.75,0],[1,0.25,0],[1,0.5,0],[1,0.75,0]];outlineConnect=0;fontColor=#232F3E;fillColor=#ED7100;strokeColor=#ffffff;dashed=0;verticalLabelPosition=bottom;verticalAlign=top;align=center;html=1;fontSize=12;fontStyle=0;aspect=fixed;shape=mxgraph.aws4.resourceIcon;resIcon=mxgraph.aws4.ecr;" parent="1" vertex="1">
          <mxGeometry x="751" y="518" width="60" height="60" as="geometry" />
        </mxCell>
        <mxCell id="l-zGgqVaCMHIHdRE0eHl-26" style="edgeStyle=orthogonalEdgeStyle;rounded=0;orthogonalLoop=1;jettySize=auto;html=1;" parent="1" source="l-zGgqVaCMHIHdRE0eHl-9" edge="1">
          <mxGeometry relative="1" as="geometry">
            <mxPoint x="50" y="290" as="targetPoint" />
          </mxGeometry>
        </mxCell>
        <mxCell id="l-zGgqVaCMHIHdRE0eHl-9" value="" style="sketch=0;points=[[0,0,0],[0.25,0,0],[0.5,0,0],[0.75,0,0],[1,0,0],[0,1,0],[0.25,1,0],[0.5,1,0],[0.75,1,0],[1,1,0],[0,0.25,0],[0,0.5,0],[0,0.75,0],[1,0.25,0],[1,0.5,0],[1,0.75,0]];outlineConnect=0;fontColor=#232F3E;fillColor=#8C4FFF;strokeColor=#ffffff;dashed=0;verticalLabelPosition=bottom;verticalAlign=top;align=center;html=1;fontSize=12;fontStyle=0;aspect=fixed;shape=mxgraph.aws4.resourceIcon;resIcon=mxgraph.aws4.kinesis;" parent="1" vertex="1">
          <mxGeometry x="174" y="360" width="78" height="78" as="geometry" />
        </mxCell>
        <mxCell id="l-zGgqVaCMHIHdRE0eHl-15" style="edgeStyle=orthogonalEdgeStyle;rounded=0;orthogonalLoop=1;jettySize=auto;html=1;exitX=1;exitY=0.5;exitDx=0;exitDy=0;exitPerimeter=0;" parent="1" source="l-zGgqVaCMHIHdRE0eHl-2" target="l-zGgqVaCMHIHdRE0eHl-3" edge="1">
          <mxGeometry relative="1" as="geometry" />
        </mxCell>
        <mxCell id="l-zGgqVaCMHIHdRE0eHl-35" value="lambda handler" style="edgeLabel;html=1;align=center;verticalAlign=middle;resizable=0;points=[];" parent="l-zGgqVaCMHIHdRE0eHl-15" vertex="1" connectable="0">
          <mxGeometry x="0.5152" y="-3" relative="1" as="geometry">
            <mxPoint as="offset" />
          </mxGeometry>
        </mxCell>
        <mxCell id="l-zGgqVaCMHIHdRE0eHl-16" style="edgeStyle=orthogonalEdgeStyle;rounded=0;orthogonalLoop=1;jettySize=auto;html=1;exitX=1;exitY=0.5;exitDx=0;exitDy=0;exitPerimeter=0;entryX=0;entryY=0.5;entryDx=0;entryDy=0;entryPerimeter=0;" parent="1" source="l-zGgqVaCMHIHdRE0eHl-3" target="l-zGgqVaCMHIHdRE0eHl-4" edge="1">
          <mxGeometry relative="1" as="geometry" />
        </mxCell>
        <mxCell id="l-zGgqVaCMHIHdRE0eHl-36" value="prediction request" style="edgeLabel;html=1;align=center;verticalAlign=middle;resizable=0;points=[];" parent="l-zGgqVaCMHIHdRE0eHl-16" vertex="1" connectable="0">
          <mxGeometry x="-0.6951" y="-1" relative="1" as="geometry">
            <mxPoint x="36" y="-42" as="offset" />
          </mxGeometry>
        </mxCell>
        <mxCell id="l-zGgqVaCMHIHdRE0eHl-38" value="mlflow model" style="edgeLabel;html=1;align=center;verticalAlign=middle;resizable=0;points=[];fontSize=12;fontStyle=1" parent="l-zGgqVaCMHIHdRE0eHl-16" vertex="1" connectable="0">
          <mxGeometry x="0.6293" y="-1" relative="1" as="geometry">
            <mxPoint as="offset" />
          </mxGeometry>
        </mxCell>
        <mxCell id="l-zGgqVaCMHIHdRE0eHl-19" value="" style="rounded=0;whiteSpace=wrap;html=1;shadow=1;opacity=10;fontSize=13;" parent="1" vertex="1">
          <mxGeometry x="-20" y="90" width="800" height="400" as="geometry" />
        </mxCell>
        <mxCell id="l-zGgqVaCMHIHdRE0eHl-33" value="Ride Event Stream" style="text;html=1;align=center;verticalAlign=middle;resizable=0;points=[];autosize=1;strokeColor=none;fillColor=none;" parent="1" vertex="1">
          <mxGeometry x="148" y="208" width="120" height="30" as="geometry" />
        </mxCell>
        <mxCell id="l-zGgqVaCMHIHdRE0eHl-34" value="Ride Prediction Stream" style="text;html=1;align=center;verticalAlign=middle;resizable=0;points=[];autosize=1;strokeColor=none;fillColor=none;" parent="1" vertex="1">
          <mxGeometry x="145" y="438" width="150" height="30" as="geometry" />
        </mxCell>
        <mxCell id="l-zGgqVaCMHIHdRE0eHl-42" value="ECR" style="text;html=1;align=center;verticalAlign=middle;resizable=0;points=[];autosize=1;strokeColor=none;fillColor=none;fontStyle=1" parent="1" vertex="1">
          <mxGeometry x="755" y="492" width="50" height="30" as="geometry" />
        </mxCell>
        <mxCell id="l-zGgqVaCMHIHdRE0eHl-44" style="edgeStyle=orthogonalEdgeStyle;rounded=0;orthogonalLoop=1;jettySize=auto;html=1;exitX=0.5;exitY=1;exitDx=0;exitDy=0;exitPerimeter=0;entryX=1;entryY=0.5;entryDx=0;entryDy=0;entryPerimeter=0;" parent="1" source="l-zGgqVaCMHIHdRE0eHl-3" target="l-zGgqVaCMHIHdRE0eHl-9" edge="1">
          <mxGeometry relative="1" as="geometry" />
        </mxCell>
        <mxCell id="l-zGgqVaCMHIHdRE0eHl-45" value="" style="rounded=0;whiteSpace=wrap;html=1;shadow=1;opacity=10;fontSize=13;" parent="1" vertex="1">
          <mxGeometry x="-40" y="70" width="860" height="520" as="geometry" />
        </mxCell>
      </root>
    </mxGraphModel>
  </diagram>
</mxfile>
